ply
format ascii 1.0
comment Created by Blender 2.73 (sub 0) - www.blender.org, source file: 'crystal.blend'
element vertex 64
property float x
property float y
property float z
property float nx
property float ny
property float nz
element face 22
property list uchar uint vertex_indices
end_header
-0.000000 -0.000000 0.217625 -0.430799 -0.146794 0.890408
-0.132089 -0.000000 0.153715 -0.430799 -0.146794 0.890408
-0.098528 -0.098528 0.153707 -0.430799 -0.146794 0.890408
0.132089 -0.000000 0.000358 0.946593 -0.322398 0.000000
0.132089 -0.000000 0.153715 0.946593 -0.322398 0.000000
0.098528 -0.098528 0.153707 0.946593 -0.322398 0.000000
0.098528 -0.098528 0.000349 0.946593 -0.322398 0.000000
-0.000000 -0.132089 0.000358 -0.322398 -0.946593 0.000000
-0.000000 -0.132089 0.153715 -0.322398 -0.946593 0.000000
-0.098528 -0.098528 0.153707 -0.322398 -0.946593 0.000000
-0.098528 -0.098528 0.000349 -0.322398 -0.946593 0.000000
-0.132089 -0.000000 0.000358 -0.946593 0.322398 0.000000
-0.132089 -0.000000 0.153715 -0.946593 0.322398 0.000000
-0.098528 0.098528 0.153707 -0.946593 0.322398 0.000000
-0.098528 0.098528 0.000349 -0.946593 0.322398 0.000000
0.132089 -0.000000 0.153715 0.430799 -0.146794 0.890408
-0.000000 -0.000000 0.217625 0.430799 -0.146794 0.890408
0.098528 -0.098528 0.153707 0.430799 -0.146794 0.890408
-0.000000 0.132089 0.153715 -0.322398 0.946593 0.000000
-0.000000 0.132089 0.000358 -0.322398 0.946593 0.000000
-0.098528 0.098528 0.000349 -0.322398 0.946593 0.000000
-0.098528 0.098528 0.153707 -0.322398 0.946593 0.000000
0.098528 0.098528 0.153707 0.322398 0.946593 0.000000
0.098528 0.098528 0.000349 0.322398 0.946593 0.000000
-0.000000 0.132089 0.000358 0.322398 0.946593 0.000000
-0.000000 0.132089 0.153715 0.322398 0.946593 0.000000
-0.000000 -0.132089 0.153715 -0.146794 -0.430799 0.890408
-0.000000 -0.000000 0.217625 -0.146794 -0.430799 0.890408
-0.098528 -0.098528 0.153707 -0.146794 -0.430799 0.890408
-0.000000 0.132089 0.153715 -0.146794 0.430799 0.890408
-0.098528 0.098528 0.153707 -0.146794 0.430799 0.890408
-0.000000 -0.000000 0.217625 -0.146794 0.430799 0.890408
-0.098528 -0.098528 0.000349 -0.946593 -0.322398 0.000000
-0.098528 -0.098528 0.153707 -0.946593 -0.322398 0.000000
-0.132089 -0.000000 0.153715 -0.946593 -0.322398 0.000000
-0.132089 -0.000000 0.000358 -0.946593 -0.322398 0.000000
0.098528 -0.098528 0.000349 0.322398 -0.946593 0.000000
0.098528 -0.098528 0.153707 0.322398 -0.946593 0.000000
-0.000000 -0.132089 0.153715 0.322398 -0.946593 0.000000
-0.000000 -0.132089 0.000358 0.322398 -0.946593 0.000000
0.098528 0.098528 0.000349 0.946593 0.322398 0.000000
0.098528 0.098528 0.153707 0.946593 0.322398 0.000000
0.132089 -0.000000 0.153715 0.946593 0.322398 0.000000
0.132089 -0.000000 0.000358 0.946593 0.322398 0.000000
-0.000000 -0.000000 0.217625 0.146794 -0.430799 0.890408
-0.000000 -0.132089 0.153715 0.146794 -0.430799 0.890408
0.098528 -0.098528 0.153707 0.146794 -0.430799 0.890408
0.098528 0.098528 0.153707 0.146794 0.430799 0.890408
-0.000000 0.132089 0.153715 0.146794 0.430799 0.890408
-0.000000 -0.000000 0.217625 0.146794 0.430799 0.890408
-0.098528 0.098528 0.153707 -0.430799 0.146794 0.890408
-0.132089 -0.000000 0.153715 -0.430799 0.146794 0.890408
-0.000000 -0.000000 0.217625 -0.430799 0.146794 0.890408
0.132089 -0.000000 0.153715 0.430799 0.146794 0.890408
0.098528 0.098528 0.153707 0.430799 0.146794 0.890408
-0.000000 -0.000000 0.217625 0.430799 0.146794 0.890408
-0.000000 -0.132089 0.000358 0.000000 0.000031 -1.000000
-0.000000 0.132089 0.000358 0.000000 -0.000031 -1.000000
0.132089 -0.000000 0.000358 -0.000031 0.000000 -1.000000
-0.132089 -0.000000 0.000358 0.000031 0.000000 -1.000000
-0.098528 0.098528 0.000349 0.000122 -0.000122 -1.000000
-0.098528 -0.098528 0.000349 0.000122 0.000122 -1.000000
0.098528 -0.098528 0.000349 -0.000122 0.000122 -1.000000
0.098528 0.098528 0.000349 -0.000122 -0.000122 -1.000000
3 0 1 2
4 3 4 5 6
4 7 8 9 10
4 11 12 13 14
3 15 16 17
4 18 19 20 21
4 22 23 24 25
3 26 27 28
3 29 30 31
4 32 33 34 35
4 36 37 38 39
4 40 41 42 43
3 44 45 46
3 47 48 49
3 50 51 52
3 53 54 55
3 56 57 58
3 57 59 60
3 59 56 61
3 56 58 62
3 58 57 63
3 57 56 59
