ply
format ascii 1.0
comment Created by Blender 2.82 (sub 7) - www.blender.org, source file: ''
element vertex 188
property float x
property float y
property float z
property float nx
property float ny
property float nz
property float s
property float t
element face 150
property list uchar uint vertex_indices
end_header
-0.900000 0.900000 -1.000000 -0.005463 0.005463 -0.999969 0.137500 0.512500
0.900000 0.900000 -1.000000 0.005463 0.005463 -0.999969 0.362500 0.512500
0.900000 -0.900000 -1.000000 0.005463 -0.005463 -0.999969 0.362500 0.737500
-0.900000 -0.900000 -1.000000 -0.005463 -0.005463 -0.999969 0.137500 0.737500
-1.000000 -0.900000 -0.900000 -0.999969 -0.005463 -0.005463 0.387500 0.012500
-1.000000 -0.900000 0.900000 -0.999969 -0.005463 0.005463 0.612500 0.012500
-1.000000 0.900000 0.900000 -0.999969 0.005463 0.005463 0.612500 0.237500
-1.000000 0.900000 -0.900000 -0.999969 0.005463 -0.005463 0.387500 0.237500
0.900000 -1.000000 -0.900000 0.005463 -0.999969 -0.005463 0.387500 0.762500
0.900000 -1.000000 0.900000 0.005463 -0.999969 0.005463 0.612500 0.762500
-0.900000 -1.000000 0.900000 -0.005463 -0.999969 0.005463 0.612500 0.987500
-0.900000 -1.000000 -0.900000 -0.005463 -0.999969 -0.005463 0.387500 0.987500
0.900000 0.900000 1.000000 0.005463 0.005463 0.999969 0.637500 0.512500
-0.900000 0.900000 1.000000 -0.005463 0.005463 0.999969 0.862500 0.512500
-0.900000 -0.900000 1.000000 -0.005463 -0.005463 0.999969 0.862500 0.737500
0.900000 -0.900000 1.000000 0.005463 -0.005463 0.999969 0.637500 0.737500
1.000000 0.900000 -0.900000 0.999969 0.005463 -0.005463 0.387500 0.512500
1.000000 0.900000 0.900000 0.999969 0.005463 0.005463 0.612500 0.512500
1.000000 -0.900000 0.900000 0.999969 -0.005463 0.005463 0.612500 0.737500
1.000000 -0.900000 -0.900000 0.999969 -0.005463 -0.005463 0.387500 0.737500
0.900000 1.000000 0.900000 0.005463 0.999969 0.005463 0.612500 0.487500
0.900000 0.999572 0.944236 0.004334 0.988037 0.154057 0.618030 0.487500
0.946919 0.998850 0.946919 0.153203 0.976226 0.153203 0.618365 0.493365
0.944236 0.999572 0.900000 0.154057 0.988037 0.004334 0.612500 0.493029
0.900000 0.986498 0.986498 0.002625 0.707083 0.707083 0.625000 0.487500
0.946026 0.986050 0.986050 0.150334 0.699057 0.699057 0.625000 0.493253
0.986050 0.986050 0.946026 0.699057 0.699057 0.150334 0.618253 0.500000
0.986498 0.986498 0.900000 0.707083 0.707083 0.002625 0.612500 0.500000
0.979461 0.979461 0.979461 0.577349 0.577349 0.577349 0.624144 0.500000
0.944236 0.900000 0.999572 0.154057 0.004334 0.988037 0.631971 0.512500
0.946919 0.946919 0.998850 0.153203 0.153203 0.976226 0.631635 0.506635
0.900000 0.944236 0.999572 0.004334 0.154057 0.988037 0.637500 0.506971
0.986498 0.900000 0.986498 0.707083 0.002625 0.707083 0.625000 0.512500
0.986050 0.946026 0.986050 0.699057 0.150334 0.699057 0.625000 0.506747
0.946026 0.986050 0.986050 0.150334 0.699057 0.699057 0.631747 0.500000
0.900000 0.986498 0.986498 0.002625 0.707083 0.707083 0.637500 0.500000
0.999572 0.944236 0.900000 0.988037 0.154057 0.004334 0.612500 0.506970
0.998850 0.946919 0.946919 0.976226 0.153203 0.153203 0.618365 0.506635
0.999572 0.900000 0.944236 0.988037 0.004334 0.154057 0.618030 0.512500
0.900000 0.944236 -0.999572 0.004334 0.154057 -0.988037 0.362500 0.506970
0.946919 0.946919 -0.998850 0.153203 0.153203 -0.976226 0.368365 0.506635
0.944236 0.900000 -0.999572 0.154057 0.004334 -0.988037 0.368030 0.512500
0.900000 0.986498 -0.986498 0.002625 0.707083 -0.707083 0.362500 0.500000
0.946026 0.986050 -0.986050 0.150334 0.699057 -0.699057 0.368253 0.500000
0.986050 0.946026 -0.986050 0.699057 0.150334 -0.699057 0.375000 0.506747
0.986498 0.900000 -0.986498 0.707083 0.002625 -0.707083 0.375000 0.512500
0.979461 0.979461 -0.979461 0.577349 0.577349 -0.577349 0.375000 0.500856
0.900000 1.000000 -0.900000 0.005463 0.999969 -0.005463 0.387500 0.487500
0.944236 0.999572 -0.900000 0.154057 0.988037 -0.004334 0.387500 0.493030
0.946919 0.998850 -0.946919 0.153203 0.976226 -0.153203 0.381635 0.493365
0.900000 0.999572 -0.944236 0.004334 0.988037 -0.154057 0.381971 0.487500
0.986498 0.986498 -0.900000 0.707083 0.707083 -0.002625 0.387500 0.500000
0.986050 0.986050 -0.946026 0.699057 0.699057 -0.150334 0.381747 0.500000
0.946026 0.986050 -0.986050 0.150334 0.699057 -0.699057 0.375000 0.493253
0.900000 0.986498 -0.986498 0.002625 0.707083 -0.707083 0.375000 0.487500
0.999572 0.900000 -0.944236 0.988037 0.004334 -0.154057 0.381971 0.512500
0.998850 0.946919 -0.946919 0.976226 0.153203 -0.153203 0.381635 0.506635
0.999572 0.944236 -0.900000 0.988037 0.154057 -0.004334 0.387500 0.506971
0.999572 -0.900000 0.944236 0.988037 -0.004334 0.154057 0.618030 0.737500
0.998850 -0.946919 0.946919 0.976226 -0.153203 0.153203 0.618365 0.743365
0.999572 -0.944236 0.900000 0.988037 -0.154057 0.004334 0.612500 0.743029
0.986498 -0.900000 0.986498 0.707083 -0.002625 0.707083 0.625000 0.737500
0.986050 -0.946026 0.986050 0.699057 -0.150334 0.699057 0.625000 0.743253
0.986050 -0.986050 0.946026 0.699057 -0.699057 0.150334 0.618253 0.750000
0.986498 -0.986498 0.900000 0.707083 -0.707083 0.002625 0.612500 0.750000
0.979461 -0.979461 0.979461 0.577349 -0.577349 0.577349 0.625000 0.749144
0.900000 -0.944236 0.999572 0.004334 -0.154057 0.988037 0.637500 0.743029
0.946919 -0.946919 0.998850 0.153203 -0.153203 0.976226 0.631635 0.743365
0.944236 -0.900000 0.999572 0.154057 -0.004334 0.988037 0.631971 0.737500
0.900000 -0.986498 0.986498 0.002625 -0.707083 0.707083 0.637500 0.750000
0.946026 -0.986050 0.986050 0.150334 -0.699057 0.699057 0.631747 0.750000
0.944236 -0.999572 0.900000 0.154057 -0.988037 0.004334 0.612500 0.756970
0.946919 -0.998850 0.946919 0.153203 -0.976226 0.153203 0.618365 0.756635
0.900000 -0.999572 0.944236 0.004334 -0.988037 0.154057 0.618030 0.762500
0.946026 -0.986050 0.986050 0.150334 -0.699057 0.699057 0.625000 0.756747
0.900000 -0.986498 0.986498 0.002625 -0.707083 0.707083 0.625000 0.762500
0.999572 -0.944236 -0.900000 0.988037 -0.154057 -0.004334 0.387500 0.743029
0.998850 -0.946919 -0.946919 0.976226 -0.153203 -0.153203 0.381635 0.743365
0.999572 -0.900000 -0.944236 0.988037 -0.004334 -0.154057 0.381971 0.737500
0.986498 -0.986498 -0.900000 0.707083 -0.707083 -0.002625 0.387500 0.750000
0.986050 -0.986050 -0.946026 0.699057 -0.699057 -0.150334 0.381747 0.750000
0.986050 -0.946026 -0.986050 0.699057 -0.150334 -0.699057 0.375000 0.743253
0.986498 -0.900000 -0.986498 0.707083 -0.002625 -0.707083 0.375000 0.737500
0.979461 -0.979461 -0.979461 0.577349 -0.577349 -0.577349 0.375856 0.750000
0.900000 -0.999572 -0.944236 0.004334 -0.988037 -0.154057 0.381971 0.762500
0.946919 -0.998850 -0.946919 0.153203 -0.976226 -0.153203 0.381635 0.756635
0.944236 -0.999572 -0.900000 0.154057 -0.988037 -0.004334 0.387500 0.756971
0.900000 -0.986498 -0.986498 0.002625 -0.707083 -0.707083 0.375000 0.762500
0.946026 -0.986050 -0.986050 0.150334 -0.699057 -0.699057 0.375000 0.756747
0.944236 -0.900000 -0.999572 0.154057 -0.004334 -0.988037 0.368030 0.737500
0.946919 -0.946919 -0.998850 0.153203 -0.153203 -0.976226 0.368365 0.743365
0.900000 -0.944236 -0.999572 0.004334 -0.154057 -0.988037 0.362500 0.743029
0.946026 -0.986050 -0.986050 0.150334 -0.699057 -0.699057 0.368253 0.750000
0.900000 -0.986498 -0.986498 0.002625 -0.707083 -0.707083 0.362500 0.750000
-0.900000 1.000000 0.900000 -0.005463 0.999969 0.005463 0.612500 0.262500
-0.944236 0.999572 0.900000 -0.154057 0.988037 0.004334 0.612500 0.256970
-0.946919 0.998850 0.946919 -0.153203 0.976226 0.153203 0.618365 0.256635
-0.900000 0.999572 0.944236 -0.004334 0.988037 0.154057 0.618030 0.262500
-0.986498 0.986498 0.900000 -0.707083 0.707083 0.002625 0.612500 0.250000
-0.986050 0.986050 0.946026 -0.699057 0.699057 0.150334 0.618253 0.250000
-0.946026 0.986050 0.986050 -0.150334 0.699057 0.699057 0.625000 0.256747
-0.900000 0.986498 0.986498 -0.002625 0.707083 0.707083 0.625000 0.262500
-0.979461 0.979461 0.979461 -0.577349 0.577349 0.577349 0.622433 0.250000
-0.999572 0.900000 0.944236 -0.988037 0.004334 0.154057 0.618030 0.237500
-0.998850 0.946919 0.946919 -0.976226 0.153203 0.153203 0.618365 0.243365
-0.999572 0.944236 0.900000 -0.988037 0.154057 0.004334 0.612500 0.243030
-0.986498 0.900000 0.986498 -0.707083 0.002625 0.707083 0.625000 0.237500
-0.986050 0.946026 0.986050 -0.699057 0.150334 0.699057 0.625000 0.243253
-0.979461 0.979461 0.979461 -0.577349 0.577349 0.577349 0.625000 0.247433
-0.900000 0.944236 0.999572 -0.004334 0.154057 0.988037 0.862500 0.506970
-0.946919 0.946919 0.998850 -0.153203 0.153203 0.976226 0.868365 0.506635
-0.944236 0.900000 0.999572 -0.154057 0.004334 0.988037 0.868030 0.512500
-0.900000 0.986498 0.986498 -0.002625 0.707083 0.707083 0.862500 0.500000
-0.946026 0.986050 0.986050 -0.150334 0.699057 0.699057 0.868253 0.500000
-0.986050 0.946026 0.986050 -0.699057 0.150334 0.699057 0.875000 0.506747
-0.986498 0.900000 0.986498 -0.707083 0.002625 0.707083 0.875000 0.512500
-0.979461 0.979461 0.979461 -0.577349 0.577349 0.577349 0.872433 0.500000
-0.999572 0.944236 -0.900000 -0.988037 0.154057 -0.004334 0.387500 0.243030
-0.998850 0.946919 -0.946919 -0.976226 0.153203 -0.153203 0.381635 0.243365
-0.999572 0.900000 -0.944236 -0.988037 0.004334 -0.154057 0.381971 0.237500
-0.986498 0.986498 -0.900000 -0.707083 0.707083 -0.002625 0.387500 0.250000
-0.986050 0.986050 -0.946026 -0.699057 0.699057 -0.150334 0.381747 0.250000
-0.986050 0.946026 -0.986050 -0.699057 0.150334 -0.699057 0.375000 0.243253
-0.986498 0.900000 -0.986498 -0.707083 0.002625 -0.707083 0.375000 0.237500
-0.979461 0.979461 -0.979461 -0.577349 0.577349 -0.577349 0.377567 0.250000
-0.900000 1.000000 -0.900000 -0.005463 0.999969 -0.005463 0.387500 0.262500
-0.900000 0.999572 -0.944236 -0.004334 0.988037 -0.154057 0.381971 0.262500
-0.946919 0.998850 -0.946919 -0.153203 0.976226 -0.153203 0.381635 0.256635
-0.944236 0.999572 -0.900000 -0.154057 0.988037 -0.004334 0.387500 0.256971
-0.900000 0.986498 -0.986498 -0.002625 0.707083 -0.707083 0.375000 0.262500
-0.946026 0.986050 -0.986050 -0.150334 0.699057 -0.699057 0.375000 0.256747
-0.979461 0.979461 -0.979461 -0.577349 0.577349 -0.577349 0.375000 0.252567
-0.944236 0.900000 -0.999572 -0.154057 0.004334 -0.988037 0.131971 0.512500
-0.946919 0.946919 -0.998850 -0.153203 0.153203 -0.976226 0.131635 0.506635
-0.900000 0.944236 -0.999572 -0.004334 0.154057 -0.988037 0.137500 0.506971
-0.986498 0.900000 -0.986498 -0.707083 0.002625 -0.707083 0.125000 0.512500
-0.986050 0.946026 -0.986050 -0.699057 0.150334 -0.699057 0.125000 0.506747
-0.946026 0.986050 -0.986050 -0.150334 0.699057 -0.699057 0.131747 0.500000
-0.900000 0.986498 -0.986498 -0.002625 0.707083 -0.707083 0.137500 0.500000
-0.979461 0.979461 -0.979461 -0.577349 0.577349 -0.577349 0.125000 0.502567
-0.999572 -0.944236 0.900000 -0.988037 -0.154057 0.004334 0.612500 0.006971
-0.998850 -0.946919 0.946919 -0.976226 -0.153203 0.153203 0.618365 0.006635
-0.999572 -0.900000 0.944236 -0.988037 -0.004334 0.154057 0.618030 0.012500
-0.986498 -0.986498 0.900000 -0.707083 -0.707083 0.002625 0.612500 0.000000
-0.986050 -0.986050 0.946026 -0.699057 -0.699057 0.150334 0.618253 0.000000
-0.986050 -0.946026 0.986050 -0.699057 -0.150334 0.699057 0.625000 0.006747
-0.986498 -0.900000 0.986498 -0.707083 -0.002625 0.707083 0.625000 0.012500
-0.979461 -0.979461 0.979461 -0.577349 -0.577349 0.577349 0.622433 0.000000
-0.900000 -0.999572 0.944236 -0.004334 -0.988037 0.154057 0.618030 0.987500
-0.946919 -0.998850 0.946919 -0.153203 -0.976226 0.153203 0.618365 0.993365
-0.944236 -0.999572 0.900000 -0.154057 -0.988037 0.004334 0.612500 0.993029
-0.900000 -0.986498 0.986498 -0.002625 -0.707083 0.707083 0.625000 0.987500
-0.946026 -0.986050 0.986050 -0.150334 -0.699057 0.699057 0.625000 0.993253
-0.986050 -0.986050 0.946026 -0.699057 -0.699057 0.150334 0.618253 1.000000
-0.986498 -0.986498 0.900000 -0.707083 -0.707083 0.002625 0.612500 1.000000
-0.979461 -0.979461 0.979461 -0.577349 -0.577349 0.577349 0.625000 0.997433
-0.944236 -0.900000 0.999572 -0.154057 -0.004334 0.988037 0.868030 0.737500
-0.946919 -0.946919 0.998850 -0.153203 -0.153203 0.976226 0.868365 0.743365
-0.900000 -0.944236 0.999572 -0.004334 -0.154057 0.988037 0.862500 0.743029
-0.986498 -0.900000 0.986498 -0.707083 -0.002625 0.707083 0.875000 0.737500
-0.986050 -0.946026 0.986050 -0.699057 -0.150334 0.699057 0.875000 0.743253
-0.946026 -0.986050 0.986050 -0.150334 -0.699057 0.699057 0.868253 0.750000
-0.900000 -0.986498 0.986498 -0.002625 -0.707083 0.707083 0.862500 0.750000
-0.979461 -0.979461 0.979461 -0.577349 -0.577349 0.577349 0.875000 0.747433
-0.900000 -0.944236 -0.999572 -0.004334 -0.154057 -0.988037 0.137500 0.743029
-0.946919 -0.946919 -0.998850 -0.153203 -0.153203 -0.976226 0.131635 0.743365
-0.944236 -0.900000 -0.999572 -0.154057 -0.004334 -0.988037 0.131971 0.737500
-0.900000 -0.986498 -0.986498 -0.002625 -0.707083 -0.707083 0.137500 0.750000
-0.946026 -0.986050 -0.986050 -0.150334 -0.699057 -0.699057 0.131747 0.750000
-0.986050 -0.946026 -0.986050 -0.699057 -0.150334 -0.699057 0.125000 0.743253
-0.986498 -0.900000 -0.986498 -0.707083 -0.002625 -0.707083 0.125000 0.737500
-0.979461 -0.979461 -0.979461 -0.577349 -0.577349 -0.577349 0.127567 0.750000
-0.944236 -0.999572 -0.900000 -0.154057 -0.988037 -0.004334 0.387500 0.993030
-0.946919 -0.998850 -0.946919 -0.153203 -0.976226 -0.153203 0.381635 0.993365
-0.900000 -0.999572 -0.944236 -0.004334 -0.988037 -0.154057 0.381971 0.987500
-0.986498 -0.986498 -0.900000 -0.707083 -0.707083 -0.002625 0.387500 1.000000
-0.986050 -0.986050 -0.946026 -0.699057 -0.699057 -0.150334 0.381747 1.000000
-0.946026 -0.986050 -0.986050 -0.150334 -0.699057 -0.699057 0.375000 0.993253
-0.900000 -0.986498 -0.986498 -0.002625 -0.707083 -0.707083 0.375000 0.987500
-0.979461 -0.979461 -0.979461 -0.577349 -0.577349 -0.577349 0.377567 1.000000
-0.999572 -0.900000 -0.944236 -0.988037 -0.004334 -0.154057 0.381971 0.012500
-0.998850 -0.946919 -0.946919 -0.976226 -0.153203 -0.153203 0.381635 0.006635
-0.999572 -0.944236 -0.900000 -0.988037 -0.154057 -0.004334 0.387500 0.006971
-0.986498 -0.900000 -0.986498 -0.707083 -0.002625 -0.707083 0.375000 0.012500
-0.986050 -0.946026 -0.986050 -0.699057 -0.150334 -0.699057 0.375000 0.006747
-0.986050 -0.986050 -0.946026 -0.699057 -0.699057 -0.150334 0.381747 0.000000
-0.986498 -0.986498 -0.900000 -0.707083 -0.707083 -0.002625 0.387500 0.000000
-0.979461 -0.979461 -0.979461 -0.577349 -0.577349 -0.577349 0.375000 0.002567
4 0 1 2 3
4 4 5 6 7
4 8 9 10 11
4 12 13 14 15
4 16 17 18 19
4 20 21 22 23
4 21 24 25 22
4 23 22 26 27
4 22 25 28 26
4 12 29 30 31
4 29 32 33 30
4 31 30 34 35
4 30 33 28 34
4 17 36 37 38
4 36 27 26 37
4 38 37 33 32
4 37 26 28 33
4 1 39 40 41
4 39 42 43 40
4 41 40 44 45
4 40 43 46 44
4 47 48 49 50
4 48 51 52 49
4 50 49 53 54
4 49 52 46 53
4 16 55 56 57
4 55 45 44 56
4 57 56 52 51
4 56 44 46 52
4 18 58 59 60
4 58 61 62 59
4 60 59 63 64
4 59 62 65 63
4 15 66 67 68
4 66 69 70 67
4 68 67 62 61
4 67 70 65 62
4 9 71 72 73
4 71 64 63 72
4 73 72 74 75
4 72 63 65 74
4 19 76 77 78
4 76 79 80 77
4 78 77 81 82
4 77 80 83 81
4 8 84 85 86
4 84 87 88 85
4 86 85 80 79
4 85 88 83 80
4 2 89 90 91
4 89 82 81 90
4 91 90 92 93
4 90 81 83 92
4 94 95 96 97
4 95 98 99 96
4 97 96 100 101
4 96 99 102 100
4 6 103 104 105
4 103 106 107 104
4 105 104 99 98
4 104 107 108 99
4 13 109 110 111
4 109 112 113 110
4 111 110 114 115
4 110 113 116 114
4 7 117 118 119
4 117 120 121 118
4 119 118 122 123
4 118 121 124 122
4 125 126 127 128
4 126 129 130 127
4 128 127 121 120
4 127 130 131 121
4 0 132 133 134
4 132 135 136 133
4 134 133 137 138
4 133 136 139 137
4 5 140 141 142
4 140 143 144 141
4 142 141 145 146
4 141 144 147 145
4 10 148 149 150
4 148 151 152 149
4 150 149 153 154
4 149 152 155 153
4 14 156 157 158
4 156 159 160 157
4 158 157 161 162
4 157 160 163 161
4 3 164 165 166
4 164 167 168 165
4 166 165 169 170
4 165 168 171 169
4 11 172 173 174
4 172 175 176 173
4 174 173 177 178
4 173 176 179 177
4 4 180 181 182
4 180 183 184 181
4 182 181 185 186
4 181 184 187 185
4 0 3 166 132
4 132 166 170 135
4 123 183 180 119
4 119 180 4 7
4 1 0 134 39
4 39 134 138 42
4 54 129 126 50
4 50 126 125 47
4 17 16 57 36
4 36 57 51 27
4 27 51 48 23
4 23 48 47 20
4 11 10 150 172
4 172 150 154 175
4 186 143 140 182
4 182 140 5 4
4 9 8 86 71
4 71 86 79 64
4 64 79 76 60
4 60 76 19 18
4 94 125 128 95
4 95 128 120 98
4 98 120 117 105
4 105 117 7 6
4 15 14 158 66
4 66 158 162 69
4 75 151 148 73
4 73 148 10 9
4 12 15 68 29
4 29 68 61 32
4 32 61 58 38
4 38 58 18 17
4 3 2 91 164
4 164 91 93 167
4 178 87 84 174
4 174 84 8 11
4 14 13 111 156
4 156 111 115 159
4 146 106 103 142
4 142 103 6 5
4 13 12 31 109
4 109 31 35 112
4 101 24 21 97
4 97 21 20 94
4 2 1 41 89
4 89 41 45 82
4 82 45 55 78
4 78 55 16 19
4 125 94 20 47
